Coordinates
version=1
nRows=13
nColumns=38
inDegrees=no

Units are S.I. units (second, meters, Newtons, ...)
If the header above contains a line with 'inDegrees', this indicates whether rotational values are in degrees (yes) or radians (no).

endheader
time	pelvis_tilt	pelvis_list	pelvis_rotation	pelvis_tx	pelvis_ty	pelvis_tz	hip_flexion_r	hip_adduction_r	hip_rotation_r	knee_angle_r	ankle_angle_r	subtalar_angle_r	mtp_angle_r	hip_flexion_l	hip_adduction_l	hip_rotation_l	knee_angle_l	ankle_angle_l	subtalar_angle_l	mtp_angle_l	lumbar_extension	lumbar_bending	lumbar_rotation	arm_flex_r	arm_add_r	arm_rot_r	elbow_flex_r	pro_sup_r	wrist_flex_r	wrist_dev_r	arm_flex_l	arm_add_l	arm_rot_l	elbow_flex_l	pro_sup_l	wrist_flex_l	wrist_dev_l
55	0.186764	1.42779	1.27	0.765919	0.121735	0.993796	0.182059	-0.0359437	-0.100423	0.217188	0.102804	0	0	0.0578928	-0.0591028	-0.246385	0.0259412	0.0293413	0	0	0.0539996	0.0760853	0.0833905	0.0262337	-0.210872	0.0567303	0.495651	1.38719	0	0	0.0295718	-0.20049	0.226563	0.540334	1.43003	0	0
55.01	0.174395	1.42482	1.28054	0.765594	0.121816	0.993497	0.188358	-0.0371157	-0.0985928	0.222026	0.104011	0	0	0.0624628	-0.0580737	-0.248432	0.0283418	0.0308795	0	0	0.051882	0.0744087	0.0846164	0.0278234	-0.21141	0.0589279	0.496675	1.38509	0	0	0.0305835	-0.202183	0.229438	0.541598	1.42659	0	0
55.02	0.162979	1.42179	1.2905	0.765237	0.121813	0.993176	0.194986	-0.0382664	-0.0970503	0.227354	0.105267	0	0	0.0675917	-0.0572067	-0.250221	0.0315519	0.0324249	0	0	0.0492544	0.0727446	0.0854934	0.0296875	-0.212045	0.0613968	0.498146	1.38317	0	0	0.0321972	-0.204053	0.233007	0.542555	1.42295	0	0
55.03	0.151976	1.41874	1.30004	0.7649	0.121749	0.992848	0.201937	-0.0393387	-0.0954197	0.233222	0.106699	0	0	0.0732289	-0.0564337	-0.252136	0.0356763	0.0343884	0	0	0.0461883	0.0710559	0.0863934	0.0318192	-0.212636	0.0639154	0.499541	1.38081	0	0	0.0341552	-0.206065	0.236944	0.542971	1.41951	0	0
55.04	0.18751	1.41334	1.26135	0.764427	0.121237	0.993461	0.211368	-0.0276015	-0.0802895	0.238821	0.097036	0	0	0.0807707	-0.0645444	-0.25627	0.0426484	0.0359638	0	0	0.0407278	0.0797102	0.0894371	0.0361586	-0.217503	0.0684402	0.499629	1.37487	0	0	0.0400976	-0.201164	0.238294	0.53459	1.41496	0	0
55.05	0.129611	1.41234	1.31821	0.764345	0.12153	0.992156	0.217121	-0.0412376	-0.0895812	0.246154	0.109369	0	0	0.0860042	-0.0551393	-0.258506	0.0465698	0.0398531	0	0	0.0393612	0.0673678	0.0891796	0.0366775	-0.214022	0.070184	0.502141	1.37251	0	0	0.0387069	-0.209453	0.24268	0.542011	1.41336	0	0
55.06	0.161318	1.40689	1.28252	0.763927	0.120803	0.992692	0.228321	-0.0296487	-0.0732592	0.254377	0.100614	0	0	0.0948697	-0.0631468	-0.263978	0.0554352	0.0420141	0	0	0.0327226	0.0752232	0.0928391	0.0419804	-0.218859	0.0751607	0.50268	1.36577	0	0	0.044721	-0.205618	0.245784	0.535773	1.40765	0	0
55.07	0.148989	1.40336	1.2925	0.763663	0.120516	0.99226	0.237202	-0.0304309	-0.069464	0.26217	0.102111	0	0	0.102735	-0.0626707	-0.26761	0.0626506	0.0451653	0	0	0.0286638	0.073008	0.0941685	0.0453014	-0.219475	0.0781182	0.503872	1.36294	0	0	0.0472466	-0.207659	0.248307	0.535576	1.40535	0	0
55.08	0.136364	1.39982	1.30254	0.763424	0.120064	0.991822	0.24686	-0.0312111	-0.0653676	0.271118	0.103862	0	0	0.111434	-0.0622951	-0.271865	0.0713354	0.0490344	0	0	0.0235907	0.0705339	0.0957152	0.0494216	-0.220229	0.0817033	0.505215	1.3598	0	0	0.0503737	-0.210001	0.251468	0.535796	1.40239	0	0
55.09	0.124004	1.39615	1.31206	0.763217	0.119466	0.991364	0.257178	-0.0318095	-0.0608063	0.280728	0.105547	0	0	0.120788	-0.0621406	-0.276319	0.080913	0.0534964	0	0	0.0179715	0.0679498	0.0974479	0.0540727	-0.22106	0.0855209	0.50668	1.35645	0	0	0.0537613	-0.212629	0.255636	0.537151	1.39948	0	0
55.1	0.112114	1.39258	1.32042	0.763086	0.118636	0.990896	0.26813	-0.0320648	-0.0551079	0.291273	0.107311	0	0	0.13077	-0.0623759	-0.281934	0.0918622	0.0585309	0	0	0.0109633	0.0651572	0.100008	0.0596652	-0.222065	0.09029	0.508087	1.35111	0	0	0.0582887	-0.21561	0.261414	0.538695	1.39518	0	0
55.11	0.101766	1.38848	1.32794	0.76291	0.117854	0.99033	0.279403	-0.0320598	-0.0501081	0.301706	0.108935	0	0	0.141633	-0.0630121	-0.286759	0.103534	0.0639504	0	0	0.00478921	0.0627015	0.10179	0.0648405	-0.223	0.0947583	0.50932	1.34519	0	0	0.0625662	-0.218575	0.267341	0.539658	1.39094	0	0
55.12	0.0929001	1.38427	1.33415	0.762734	0.117011	0.989671	0.291047	-0.031717	-0.0450877	0.312724	0.110769	0	0	0.153255	-0.0641252	-0.291645	0.116558	0.0702585	0	0	-0.00146591	0.0604113	0.103215	0.0696651	-0.2263	0.112874	0.513104	1.30934	0	0	0.0667233	-0.222987	0.280206	0.542056	1.37204	0	0
